<svg xmlns="http://www.w3.org/2000/svg" viewBox="0 0 32 32" fill="none">
  <!-- KVRÃO favicon — caveira d'água simplificada -->
  <rect width="32" height="32" rx="7" fill="#0f1118"/>
  <!-- skull outline -->
  <path
    fill="#38bdf8"
    fill-opacity="0.92"
    d="M16 5.2c-4.6 0-8.3 3.5-8.3 7.9 0 2.4 1.1 4.5 2.8 5.9v1.4c0 .7.5 1.3 1.2 1.4l1.1.2v1.6c0 .5.4.9.9.9h1.4v1.1c0 .4.3.7.7.7h1.4c.4 0 .7-.3.7-.7v-1.1h1.4c.5 0 .9-.4.9-.9v-1.6l1.1-.2c.7-.1 1.2-.7 1.2-1.4v-1.4c1.7-1.4 2.8-3.5 2.8-5.9 0-4.4-3.7-7.9-8.3-7.9z"
  />
  <!-- eye sockets -->
  <ellipse cx="12.4" cy="13.2" rx="2.1" ry="2.4" fill="#0f1118"/>
  <ellipse cx="19.6" cy="13.2" rx="2.1" ry="2.4" fill="#0f1118"/>
  <!-- glowing pupils -->
  <circle cx="12.4" cy="13.4" r="0.9" fill="#7dd3fc"/>
  <circle cx="19.6" cy="13.4" r="0.9" fill="#7dd3fc"/>
  <!-- nose -->
  <path fill="#0f1118" d="M16 15.2l-1.2 2.1h2.4L16 15.2z"/>
  <!-- teeth bar -->
  <rect x="12.2" y="18.4" width="7.6" height="2.2" rx="0.4" fill="#0f1118"/>
  <path stroke="#38bdf8" stroke-width="0.45" d="M14.1 18.4v2.2M16 18.4v2.2M17.9 18.4v2.2"/>
  <!-- drip -->
  <path fill="#38bdf8" fill-opacity="0.75" d="M9.5 24.2c0 1.1.9 2 2 2s2-.9 2-2c0-1.4-2-3.2-2-3.2s-2 1.8-2 3.2z"/>
  <path fill="#38bdf8" fill-opacity="0.55" d="M20 25c0 .85.7 1.55 1.55 1.55S23.1 25.85 23.1 25c0-1.1-1.55-2.5-1.55-2.5S20 23.9 20 25z"/>
</svg>
